<svg width="442" height="78" viewBox="0 0 442 78" fill="none" xmlns="http://www.w3.org/2000/svg">
<path d="M101.864 20.552L96.232 22.472L97.192 21.064V56.072L96.232 54.728L101.864 56.392V61H83.304V56.392L88.872 54.792L88.04 56.072V21.064L89.192 22.472L83.304 20.872V16.264L101.864 15.944V20.552ZM105.783 61V57.04L110.403 55.72L109.468 56.82V35.865L110.403 37.13L105.783 35.755V31.795L115.463 31.355L116.453 36.635L115.463 36.25C117.223 34.4533 119.093 33.1333 121.073 32.29C123.053 31.41 124.941 30.97 126.738 30.97C129.231 30.97 131.303 31.7583 132.953 33.335C134.603 34.875 135.409 37.2217 135.373 40.375V56.82L134.658 55.72L139.058 57.04V61H124.373V57.04L128.553 55.83L127.673 56.985V42.025C127.673 40.2283 127.269 38.9083 126.463 38.065C125.693 37.2217 124.666 36.8 123.383 36.8C122.393 36.8 121.311 37.075 120.138 37.625C118.964 38.175 117.809 39 116.673 40.1L117.168 38.945V56.985L116.453 55.83L120.468 57.04V61H105.783ZM149.648 39.055C149.648 39.8983 150.015 40.5767 150.748 41.09C151.481 41.6033 152.416 42.0433 153.553 42.41C154.726 42.7767 155.955 43.1617 157.238 43.565C158.558 43.9683 159.786 44.5 160.923 45.16C162.096 45.7833 163.05 46.6267 163.783 47.69C164.516 48.7533 164.883 50.1283 164.883 51.815C164.883 53.9783 164.296 55.7933 163.123 57.26C161.95 58.7267 160.355 59.8267 158.338 60.56C156.321 61.2933 154.048 61.66 151.518 61.66C150.051 61.66 148.493 61.5317 146.843 61.275C145.23 61.0183 143.561 60.67 141.838 60.23L142.168 51.925H147.008L147.613 56.765L146.953 55.83C147.686 56.05 148.493 56.2333 149.373 56.38C150.253 56.49 151.023 56.545 151.683 56.545C152.636 56.545 153.516 56.4167 154.323 56.16C155.166 55.9033 155.845 55.5367 156.358 55.06C156.908 54.5467 157.183 53.905 157.183 53.135C157.183 52.255 156.816 51.5583 156.083 51.045C155.35 50.5317 154.396 50.0917 153.223 49.725C152.086 49.3583 150.876 48.9733 149.593 48.57C148.346 48.1667 147.136 47.635 145.963 46.975C144.826 46.315 143.891 45.435 143.158 44.335C142.425 43.235 142.058 41.805 142.058 40.045C142.058 37.9183 142.59 36.195 143.653 34.875C144.716 33.5183 146.128 32.5283 147.888 31.905C149.685 31.2817 151.646 30.97 153.773 30.97C155.276 30.97 156.871 31.1167 158.558 31.41C160.245 31.6667 161.968 32.0517 163.728 32.565L163.453 39.935H158.558L157.678 35.59L158.723 36.745C157 36.2683 155.478 36.03 154.158 36.03C152.801 36.03 151.701 36.305 150.858 36.855C150.051 37.3683 149.648 38.1017 149.648 39.055ZM179.687 56.49L179.137 55.83L183.372 57.04V61H168.302V57.04L172.537 55.83L171.987 56.49V36.415L172.482 36.91L168.302 35.755V31.795L179.687 31.41V56.49ZM175.617 27.12C174.26 27.12 173.16 26.735 172.317 25.965C171.51 25.195 171.107 24.095 171.107 22.665C171.107 21.125 171.529 19.9883 172.372 19.255C173.252 18.485 174.352 18.1 175.672 18.1C176.955 18.1 178.019 18.485 178.862 19.255C179.705 19.9883 180.127 21.1067 180.127 22.61C180.127 24.1133 179.687 25.25 178.807 26.02C177.964 26.7533 176.9 27.12 175.617 27.12ZM198.517 74.31C193.933 74.31 190.523 73.705 188.287 72.495C186.05 71.285 184.932 69.4883 184.932 67.105C184.932 65.2717 185.555 63.7317 186.802 62.485C188.085 61.275 189.955 60.2667 192.412 59.46L192.302 61C190.908 60.89 189.772 60.5233 188.892 59.9C188.012 59.2767 187.572 58.4517 187.572 57.425C187.572 57.095 187.627 56.7467 187.737 56.38C187.847 56.0133 188.048 55.555 188.342 55.005C188.635 54.4183 189.038 53.7033 189.552 52.86C190.065 52.0167 190.707 50.9533 191.477 49.67L191.587 50.935C189.753 50.0917 188.36 48.9 187.407 47.36C186.453 45.82 185.977 43.9867 185.977 41.86C185.977 38.45 187.132 35.7917 189.442 33.885C191.788 31.9417 195.033 30.97 199.177 30.97C202.147 30.97 204.677 31.4833 206.767 32.51L205.007 32.18L214.192 31.85V35.975L209.847 36.855L210.342 36.03C210.892 36.69 211.313 37.46 211.607 38.34C211.9 39.22 212.047 40.2283 212.047 41.365C212.047 44.775 210.855 47.47 208.472 49.45C206.088 51.3933 202.88 52.365 198.847 52.365C196.94 52.365 195.107 52.1083 193.347 51.595L194.612 50.825L193.732 56.71L192.577 56.16H203.577C207.28 56.16 210.085 56.875 211.992 58.305C213.898 59.735 214.852 61.825 214.852 64.575C214.852 67.7283 213.477 70.13 210.727 71.78C208.013 73.4667 203.943 74.31 198.517 74.31ZM199.177 68.92C202.11 68.92 204.218 68.6083 205.502 67.985C206.822 67.3617 207.482 66.445 207.482 65.235C207.482 64.0617 207.042 63.2 206.162 62.65C205.282 62.1 204.017 61.825 202.367 61.825H192.797L194.612 61.44C192.632 62.6867 191.642 64.0983 191.642 65.675C191.642 66.7383 192.247 67.545 193.457 68.095C194.667 68.645 196.573 68.92 199.177 68.92ZM198.847 47.195C200.643 47.195 202.018 46.7183 202.972 45.765C203.925 44.8117 204.402 43.4 204.402 41.53C204.402 39.66 203.962 38.3033 203.082 37.46C202.202 36.58 200.882 36.14 199.122 36.14C197.325 36.14 195.968 36.5983 195.052 37.515C194.135 38.4317 193.677 39.8067 193.677 41.64C193.677 43.4367 194.117 44.8117 194.997 45.765C195.877 46.7183 197.16 47.195 198.847 47.195ZM216.357 61V57.04L220.922 55.72L219.987 56.82V22.72L220.922 23.93L216.357 22.61V18.65L227.687 18.21V36.635L225.982 36.25C227.742 34.4533 229.612 33.1333 231.592 32.29C233.572 31.41 235.46 30.97 237.257 30.97C238.907 30.97 240.392 31.3183 241.712 32.015C243.032 32.7117 244.058 33.7567 244.792 35.15C245.562 36.5067 245.928 38.23 245.892 40.32V56.82L245.177 55.72L249.577 57.04V61H234.892V57.04L239.127 55.83L238.192 56.985V41.97C238.228 40.21 237.843 38.9083 237.037 38.065C236.23 37.2217 235.185 36.8 233.902 36.8C232.912 36.8 231.83 37.075 230.657 37.625C229.483 38.175 228.31 39 227.137 40.1L227.687 38.945V56.985L226.972 55.83L230.987 57.04V61H216.357ZM262.44 61.66C259.91 61.66 257.985 60.9083 256.665 59.405C255.382 57.865 254.74 55.5917 254.74 52.585V35.755L255.73 36.745H250.45V32.62L255.84 31.355L254.74 32.675V25.195L262.495 23.82V32.675L261.67 31.63H270.03L269.92 36.745H261.67L262.495 35.755V51.54C262.495 53.1167 262.752 54.2533 263.265 54.95C263.778 55.6467 264.548 55.995 265.575 55.995C266.162 55.995 266.803 55.9033 267.5 55.72C268.233 55.5 269.022 55.225 269.865 54.895L271.295 59.13C268.215 60.8167 265.263 61.66 262.44 61.66ZM300.747 47.432H306.187V61H274.123V56.392L279.883 54.728L278.859 56.52V20.68L279.883 22.408L274.123 20.872V16.264L293.131 15.944V20.552L287.051 22.408L288.011 20.68V55.816L286.603 54.408H300.555L299.275 55.88L300.747 47.432ZM334.017 57.095L332.972 55.555L337.702 57.04V60.945L328.077 61.44L327.032 56.16L327.582 56.325C326.115 58.1217 324.52 59.46 322.797 60.34C321.074 61.22 319.295 61.66 317.462 61.66C315.115 61.66 313.172 60.9083 311.632 59.405C310.092 57.9017 309.322 55.7383 309.322 52.915C309.322 50.825 309.762 49.175 310.642 47.965C311.559 46.7183 312.879 45.82 314.602 45.27C316.325 44.72 318.415 44.445 320.872 44.445H326.867L326.317 45.05V41.42C326.317 39.6967 325.895 38.4683 325.052 37.735C324.245 37.0017 323.054 36.635 321.477 36.635C320.707 36.635 319.882 36.7083 319.002 36.855C318.122 37.0017 317.169 37.2217 316.142 37.515L316.912 36.69L316.197 41.145H311.412L310.972 33.115C313.465 32.3817 315.739 31.85 317.792 31.52C319.882 31.1533 321.789 30.97 323.512 30.97C326.922 30.97 329.525 31.7033 331.322 33.17C333.119 34.6367 334.017 36.91 334.017 39.99V57.095ZM317.077 52.145C317.077 53.5017 317.389 54.51 318.012 55.17C318.672 55.7933 319.497 56.105 320.487 56.105C321.404 56.105 322.412 55.83 323.512 55.28C324.612 54.6933 325.657 53.905 326.647 52.915L326.317 54.235V47.965L326.867 48.515H322.137C320.23 48.515 318.91 48.8083 318.177 49.395C317.444 49.9817 317.077 50.8983 317.077 52.145ZM352.032 61.66C350.602 61.66 349.062 61.5683 347.412 61.385C345.762 61.2017 343.984 60.9267 342.077 60.56V21.95L343.287 24.04L338.392 22.61V18.65L349.777 18.21V36.36L348.842 35.205C350.162 33.885 351.61 32.8583 353.187 32.125C354.764 31.355 356.432 30.97 358.192 30.97C360.319 30.97 362.189 31.5383 363.802 32.675C365.415 33.775 366.68 35.425 367.597 37.625C368.55 39.825 369.027 42.5383 369.027 45.765C369.027 48.075 368.734 50.2017 368.147 52.145C367.597 54.0517 366.662 55.72 365.342 57.15C364.059 58.58 362.317 59.6983 360.117 60.505C357.954 61.275 355.259 61.66 352.032 61.66ZM353.407 56.16C356.047 56.16 357.972 55.2983 359.182 53.575C360.392 51.8517 360.997 49.45 360.997 46.37C360.997 44.3533 360.759 42.63 360.282 41.2C359.805 39.7333 359.145 38.615 358.302 37.845C357.459 37.0383 356.414 36.635 355.167 36.635C354.214 36.635 353.205 36.8917 352.142 37.405C351.079 37.9183 349.979 38.7067 348.842 39.77L349.777 37.405V57.37L348.842 55.5C350.565 55.94 352.087 56.16 353.407 56.16Z" fill="#004643"/>
<path d="M28.562 0.10421C23.6164 0.423401 18.0302 2.28156 14.0455 4.91489C9.45867 7.9586 6.42212 11.3899 4.21838 16.041C2.41183 19.8485 1.75839 24.454 2.50151 28.2501C3.21901 31.9436 4.66682 35.1355 7.13962 38.4528C7.97242 39.57 8.6643 40.3223 9.97116 41.5079C14.699 45.8056 19.7855 48.2109 26.3198 49.2369C28.2417 49.5333 31.7395 49.6473 33.5076 49.4649C38.3635 48.9633 43.3219 47.2876 47.0888 44.8708C47.6525 44.506 48.165 44.2096 48.2163 44.2096C48.4085 44.2096 50.2791 45.4408 51.176 46.1476C52.4316 47.1394 52.5981 47.1964 53.021 46.7632C53.2003 46.5694 53.7128 46.045 54.1613 45.589C54.5969 45.1444 54.9556 44.7112 54.9556 44.6314C54.9556 44.4832 53.0978 42.7277 52.1753 42.0095L51.6372 41.5877L52.5341 40.7669C53.6359 39.7638 54.5584 38.5554 55.7116 36.5604C57.9922 32.6503 58.9275 29.2076 58.9275 24.7618C58.9275 21.1481 57.9794 17.6711 56.0959 14.3196C54.9684 12.3133 54.4431 11.5495 52.9953 9.85095C48.165 4.13971 40.8491 0.651398 32.5339 0.0928116C30.6376 -0.0325851 30.6889 -0.0325851 28.562 0.10421ZM33.4307 2.87434C37.236 3.29613 40.7466 4.3563 43.8088 5.99786C48.9722 8.76798 53.2131 13.5787 55.0581 18.7883C55.8397 20.9885 56.0447 22.2424 56.0319 24.8872C56.0319 26.6085 55.9678 27.6231 55.8013 28.4781C54.9044 33.3343 52.816 36.891 48.8441 40.3451C46.6788 42.2375 44.5007 43.5485 41.4257 44.8138C37.9663 46.2388 35.1476 46.8772 31.7011 47.014C28.972 47.128 26.7042 46.8544 23.5652 46.0108C20.5542 45.2128 17.8508 43.9702 15.109 42.1349C12.3799 40.3109 10.7271 38.7492 8.70273 36.0703C7.4343 34.3831 6.1915 31.6016 5.55087 28.991C5.20494 27.6231 5.17931 27.3267 5.17931 25.1151C5.17931 22.9378 5.21775 22.573 5.53806 21.1481C6.33243 17.6939 7.99805 14.3994 10.4068 11.5495C13.1486 8.30059 17.3768 5.50767 21.7714 4.04851C23.2577 3.55832 25.8586 2.97693 27.1526 2.84014C28.7029 2.68054 31.8548 2.70335 33.4307 2.87434Z" fill="#004643"/>
<path d="M17.6077 9.70282C16.698 10.136 15.878 10.8314 15.468 11.5154C15.2246 11.9258 15.1733 12.1766 15.1733 13.0885C15.1733 14.0461 15.2118 14.2513 15.5321 14.8099C15.9677 15.5965 16.8133 16.3146 17.7743 16.7136C18.8377 17.1468 20.2599 17.1468 21.2721 16.7022C22.1561 16.3146 22.9633 15.5623 23.4117 14.7073C23.8602 13.8295 23.873 12.4843 23.4374 11.7206C22.7839 10.5692 21.9255 9.90801 20.593 9.53182C19.4143 9.21263 18.5302 9.25823 17.6077 9.70282ZM20.0036 11.0366C20.6314 11.1962 21.208 11.6408 21.5283 12.2107C21.9255 12.8833 21.8358 13.9321 21.3361 14.5135C20.6058 15.3571 19.3758 15.5851 18.3252 15.0835C17.3258 14.5933 16.7749 13.5559 17.0568 12.6667C17.2233 12.1196 18.1202 11.2988 18.7608 11.0936C19.3886 10.8998 19.4143 10.8998 20.0036 11.0366Z" fill="#004643"/>
<path d="M40.0296 10.1017C38.5561 10.7173 37.8899 12.4728 38.6074 13.8294C38.9789 14.5362 39.3633 14.8668 40.1449 15.129L40.747 15.3227L40.7342 28.9568C40.7342 36.4578 40.7727 42.625 40.8367 42.6592C40.888 42.682 41.2852 42.6022 41.708 42.4654L42.4895 42.226L42.5408 34.9872C42.5792 30.9973 42.5664 24.9441 42.528 21.5242L42.4511 15.3113L43.0533 14.8326C45.3595 12.9744 44.3345 10.1473 41.298 9.94209C40.7342 9.89649 40.4139 9.94209 40.0296 10.1017ZM42.0795 11.766C42.733 12.3474 42.592 13.2138 41.7977 13.4988C41.4261 13.647 41.3236 13.6356 40.9905 13.4874C40.7855 13.3962 40.5292 13.2024 40.4267 13.0656C39.6964 12.1308 41.1827 10.9681 42.0795 11.766Z" fill="#ABD1C6"/>
<path d="M28.9339 11.0362C27.7295 11.2186 26.7686 12.37 26.7686 13.624C26.7686 14.4333 27.4861 15.4023 28.3701 15.7785L28.7545 15.9381L28.7929 29.5835C28.8057 37.0959 28.857 43.6051 28.8954 44.0611L28.9723 44.8705L29.7667 44.9161C30.1895 44.9389 30.5867 44.9503 30.6251 44.9275C30.6635 44.9161 30.6763 38.3613 30.6379 30.3701L30.5867 15.8469L30.9454 15.6759C31.4067 15.4593 31.932 14.9691 32.201 14.4903C32.5085 13.9431 32.4701 12.8944 32.1113 12.3928C31.4707 11.458 30.0742 10.8652 28.9339 11.0362ZM30.1382 12.6436C30.6379 12.8374 30.8173 13.225 30.6123 13.6581C30.2792 14.3763 29.6257 14.5245 29.0492 14.0343C28.6392 13.6923 28.6007 13.453 28.8826 12.9742C29.1517 12.5182 29.5489 12.4042 30.1382 12.6436Z" fill="#ABD1C6"/>
<path d="M33.1106 18.1726C31.9959 18.6855 31.3553 19.6089 31.3553 20.7261C31.3425 21.6723 31.6884 22.2992 32.5084 22.8578L33.0722 23.234L33.0594 34.0181L33.0338 44.8022L33.905 44.7224C34.3791 44.6768 34.7891 44.6313 34.8019 44.6199C34.8147 44.6085 34.8403 39.8206 34.8531 33.9839L34.8659 23.3708L35.5834 22.9832C36.1856 22.6754 36.3778 22.4816 36.7237 21.8889C36.9672 21.4785 37.1465 20.9883 37.1465 20.7717C37.1465 19.1985 35.8653 17.9902 34.1869 17.9902C33.8025 17.9902 33.3284 18.07 33.1106 18.1726ZM34.9172 19.7913C35.1606 19.9395 35.4809 20.4297 35.4809 20.6463C35.4809 20.7603 35.3144 21.0111 35.1094 21.1935C34.6097 21.6381 33.9306 21.6495 33.495 21.2277C33.085 20.8401 33.085 20.4867 33.5078 20.0535C33.7641 19.7799 33.9434 19.7001 34.3022 19.7001C34.5712 19.7001 34.8403 19.7457 34.9172 19.7913Z" fill="#ABD1C6"/>
<path d="M45.5001 18.3436C44.9108 18.6058 44.3214 19.1758 43.9883 19.7914C43.7192 20.3043 43.7961 21.6381 44.1164 22.2423C44.2445 22.4703 44.5905 22.8123 44.8851 22.9833L45.4105 23.3025L45.3976 26.426C45.3976 28.1473 45.3464 31.248 45.2823 33.3228C45.2311 35.3861 45.2183 37.8371 45.2823 38.7604L45.372 40.4248L46.0255 40.0828C46.397 39.9004 46.8198 39.6382 46.9736 39.5128L47.2554 39.2734L47.1786 35.8421C47.1401 33.9612 47.153 30.3817 47.2042 27.8965L47.2939 23.3823L47.7039 23.2569C48.4214 23.0175 49.0236 22.4703 49.3054 21.7977C49.7923 20.6691 49.5873 19.7116 48.6904 18.8908C47.8064 18.0814 46.5764 17.8762 45.5001 18.3436ZM47.6398 20.1105C48.0114 20.5323 47.9729 20.8743 47.5117 21.3531C46.9992 21.8775 46.538 21.8889 45.987 21.3873C45.6539 21.0909 45.5898 20.9655 45.6539 20.6805C45.782 20.1219 46.2048 19.8142 46.8326 19.8142C47.2683 19.8142 47.4348 19.8712 47.6398 20.1105Z" fill="#ABD1C6"/>
<path d="M17.6587 20.7943L17.3512 21.0907L17.2871 29.0248C17.2487 33.3909 17.2487 37.9394 17.2871 39.1364L17.3512 41.3023L18.1199 41.6671C18.5427 41.8609 18.9143 41.9977 18.9527 41.9635C18.9912 41.9407 19.0552 37.9736 19.1065 33.1743C19.1449 28.3637 19.2346 23.6556 19.2859 22.7094C19.3756 21.0451 19.3627 20.9767 19.0937 20.7373C18.7093 20.3953 18.0559 20.4181 17.6587 20.7943Z" fill="#ABD1C6"/>
<path d="M23.1297 21.8663C22.6556 21.9917 22.22 22.3565 21.7588 22.9949C21.4513 23.4053 21.3872 23.6333 21.3872 24.169C21.3872 25.1152 21.7588 25.651 22.8478 26.2438C23.3219 26.506 24.4494 26.4376 25.1925 26.107C25.8972 25.7764 26.5378 24.8872 26.6147 24.1006C26.6531 23.5877 26.6147 23.4509 26.2303 22.9493C25.5256 22.0145 24.2572 21.5699 23.1297 21.8663ZM24.5775 23.8498C24.7441 24.1576 24.7313 24.2032 24.4622 24.397C23.6934 24.9556 22.8734 24.3058 23.5781 23.6789C23.9241 23.3711 24.3597 23.4395 24.5775 23.8498Z" fill="#ABD1C6"/>
<path d="M12.7389 22.5958C11.8804 22.9377 11.2911 23.8839 11.4832 24.6021C11.6242 25.1493 12.0726 25.7193 12.5467 25.9587L13.0207 26.1867L13.0976 29.9714C13.1489 32.0575 13.1873 34.7364 13.1873 35.9334V38.0993L13.9945 38.7605L14.7888 39.4331L14.8657 38.6009C14.917 38.1449 14.9554 35.124 14.9682 31.8865L14.981 26.0043L15.3142 25.7307C15.7882 25.3431 16.1598 24.5679 16.0573 24.1803C15.8907 23.5305 15.3782 22.9263 14.8145 22.6756C14.1867 22.402 13.3154 22.3678 12.7389 22.5958ZM14.2379 24.1119C14.6479 24.5337 14.0329 25.0809 13.5973 24.6933C13.5076 24.6135 13.4435 24.4083 13.4435 24.2373C13.4435 23.9751 13.4948 23.9181 13.7382 23.9181C13.9048 23.9181 14.1354 24.0093 14.2379 24.1119Z" fill="#ABD1C6"/>
<path d="M37.3389 26.9392L37.0186 27.2128V35.6371V44.0615L37.8129 43.9019C38.2614 43.8107 38.6457 43.7081 38.6842 43.6739C38.7226 43.6511 38.7739 39.8892 38.8123 35.3408C38.8764 28.2615 38.8507 27.019 38.697 26.848C38.4279 26.5516 37.7104 26.5972 37.3389 26.9392Z" fill="#ABD1C6"/>
<path d="M25.3974 27.2469C25.0003 27.3609 25.0003 27.3723 24.9106 28.2957C24.8721 28.7973 24.8465 32.6048 24.8721 36.7429L24.9106 44.2667L25.7178 44.4149C26.1662 44.5061 26.5506 44.5517 26.5762 44.5403C26.6146 44.4947 26.6915 27.8055 26.6531 27.3039C26.6402 27.0759 26.0893 27.0531 25.3974 27.2469Z" fill="#ABD1C6"/>
<path d="M49.882 27.2237C49.7282 27.2692 49.4976 27.4402 49.3695 27.5884C49.1389 27.8506 49.1261 28.1584 49.0876 32.2509C49.062 34.6563 49.1004 36.7538 49.1645 36.902C49.267 37.1642 49.3054 37.1414 49.9973 36.4118C50.3945 35.99 50.7789 35.4656 50.8429 35.2262C50.9198 34.9982 51.0351 33.6531 51.112 32.2395C51.1889 30.826 51.317 29.2186 51.3939 28.6486L51.522 27.634L51.1889 27.3718C50.8301 27.0983 50.356 27.0527 49.882 27.2237Z" fill="#ABD1C6"/>
<path d="M21.2591 27.3381C21.0925 27.4293 21.0669 28.4097 21.0925 35.2039C21.1053 39.4674 21.1438 43.0013 21.195 43.0697C21.2975 43.2179 22.3866 43.6396 22.6813 43.6396C22.9119 43.6396 22.9247 43.5257 22.9247 42.1235C22.9375 41.3027 22.9503 37.6548 22.9759 34.0297L23.0144 27.4293L22.7069 27.3267C22.3097 27.1899 21.5025 27.2013 21.2591 27.3381Z" fill="#ABD1C6"/>
<path d="M9.40758 29.9828L9.04883 30.2222L9.15133 31.6357C9.18976 32.4109 9.27945 33.1975 9.34351 33.3913C9.44601 33.6991 10.8682 35.4888 10.9579 35.409C10.9707 35.3862 11.0091 34.1779 11.0348 32.7187C11.0732 30.188 11.0604 30.0512 10.8298 29.8916C10.4582 29.6522 9.81757 29.6978 9.40758 29.9828Z" fill="#ABD1C6"/>
<path d="M67.5759 8.58545L67.2812 8.88184L67.3325 17.2264C67.3581 21.8205 67.4094 30.5755 67.435 36.6857C67.4734 44.3691 67.5375 47.9714 67.64 48.3704C67.7681 48.9176 68.1141 49.3394 68.9084 49.9663L69.2031 50.1943L69.1262 45.7485C69.075 43.2975 69.0109 33.9726 68.9853 25.0238C68.9469 9.75962 68.9341 8.72224 68.7162 8.51705C68.4087 8.22066 67.9347 8.24346 67.5759 8.58545Z" fill="#ABD1C6"/>
<path d="M63.4119 17.7051C63.271 17.8533 63.2454 20.5778 63.271 31.3505L63.2966 44.8136L63.7194 45.3379C63.9629 45.6229 64.296 45.9763 64.4754 46.1245L64.7829 46.3867L64.8597 45.9535C64.8982 45.7141 64.9366 39.3645 64.9494 31.8293L64.9622 18.1497L64.6932 17.8419C64.3729 17.4885 63.681 17.4201 63.4119 17.7051Z" fill="#ABD1C6"/>
<path d="M0.682344 34.3713C0.515782 34.6677 0.464532 53.1124 0.618281 53.4886C0.861718 54.0586 1.86109 54.1726 2.16859 53.671C2.25827 53.5228 2.29671 50.6387 2.30952 45.0984C2.30952 35.8875 2.34796 36.2522 1.50234 34.8273C1.09234 34.1547 0.861718 34.0293 0.682344 34.3713Z" fill="#ABD1C6"/>
<path d="M60.3628 34.5995C60.1578 34.6679 59.6965 35.5799 59.184 36.9592L58.7612 38.0992L58.8637 39.6951C58.915 40.5843 58.9919 41.5533 59.0303 41.8497C59.12 42.3741 59.1584 42.4197 59.6325 42.5793C59.9143 42.6705 60.2987 42.7731 60.4781 42.8073L60.8112 42.8643L60.9009 39.2848C61.0162 34.8389 60.965 34.3829 60.3628 34.5995Z" fill="#ABD1C6"/>
<path d="M5.19236 41.8726C5.01299 42.0436 4.85924 42.3742 4.80799 42.682C4.7183 43.3318 4.70549 56.601 4.80799 56.9316C4.89768 57.2508 5.56392 57.5814 5.9483 57.5016C6.12767 57.456 6.29423 57.2964 6.38392 57.0798C6.48642 56.829 6.52486 54.4579 6.52486 49.5332V42.3514L6.19173 41.9638C5.80736 41.5078 5.58955 41.4964 5.19236 41.8726Z" fill="#ABD1C6"/>
<path d="M9.21555 45.0642C8.79274 45.4631 8.7543 46.1357 8.76712 53.3973C8.76712 59.3138 8.77993 59.5874 9.01055 59.8154C9.3693 60.1688 10.0227 60.1346 10.3559 59.7584C10.6121 59.462 10.6121 59.3594 10.5865 52.531L10.5609 45.5999L10.2405 45.2921C9.71524 44.7906 9.54867 44.7564 9.21555 45.0642Z" fill="#ABD1C6"/>
<path d="M57.7875 45.1786C57.5441 45.3268 56.3013 46.3414 55.0328 47.4244C53.7516 48.5188 52.355 49.6815 51.9194 50.0121C51.1635 50.6049 51.1378 50.6391 51.2788 50.9469C51.3685 51.1179 54.9816 54.4352 59.3122 58.3111C68.2168 66.2909 67.8709 66.0287 69.6774 66.0173C71.8684 65.9945 73.5212 64.8773 74.5846 62.6772C74.9433 61.9362 74.9946 61.6968 74.9946 60.8532C74.9946 58.9267 75.4815 59.4853 67.3328 52.2009C63.3865 48.6556 59.94 45.5662 59.6837 45.3268C59.2994 44.9621 59.1328 44.8937 58.7228 44.8937C58.4153 44.9051 58.0566 45.0077 57.7875 45.1786Z" fill="#004643"/>
<path d="M13.2131 48.074C12.9953 48.3932 12.9569 48.7694 12.8928 51.3685C12.8031 54.8112 12.8672 61.9702 12.9825 62.3008C13.0594 62.5288 13.5463 62.791 13.8922 62.791C13.9947 62.791 14.1997 62.6884 14.3406 62.563C14.5969 62.335 14.5969 62.1868 14.5969 55.3926V48.4388L14.315 48.1538C13.841 47.6978 13.495 47.675 13.2131 48.074Z" fill="#ABD1C6"/>
<path d="M46.82 48.3702C46.615 48.4728 46.2819 48.6552 46.0769 48.8034L45.7309 49.0541L45.6797 55.8598L45.6284 62.6768L45.8975 62.8478C46.2947 63.0986 46.6662 63.053 47.025 62.7224L47.3325 62.426L47.4093 58.1397C47.5503 50.7071 47.5375 48.6096 47.3709 48.393C47.2172 48.222 47.1659 48.222 46.82 48.3702Z" fill="#ABD1C6"/>
<path d="M17.2102 50.0917C17.0052 50.3539 16.9924 51.0151 16.9796 57.2849L16.9668 64.1818L17.2871 64.4098C17.6715 64.6834 18.2737 64.615 18.6196 64.2388C18.8374 63.9994 18.8502 63.8056 18.7734 60.9671C18.7349 59.3027 18.6965 56.2362 18.6965 54.15V50.3539L18.3762 50.0803C17.9662 49.7042 17.4793 49.7156 17.2102 50.0917Z" fill="#ABD1C6"/>
<path d="M42.1817 50.5361C41.9638 50.6159 41.746 50.7983 41.6948 50.9351C41.6435 51.0833 41.6051 54.3664 41.5923 58.2423C41.5923 63.8168 41.6179 65.3215 41.7588 65.4697C42.0023 65.7205 42.6173 65.6863 42.9632 65.3785L43.2451 65.1163L43.2835 57.9117C43.3092 52.4741 43.2707 50.6501 43.1554 50.5247C42.976 50.3309 42.707 50.3309 42.1817 50.5361Z" fill="#ABD1C6"/>
<path d="M21.1054 51.3457C21.0414 51.3913 21.0029 54.6516 21.0029 58.5959V65.7663L21.3104 66.0399C21.5923 66.2907 21.6692 66.3021 22.0151 66.1995C22.8095 65.9487 22.7967 65.9943 22.7967 61.4117C22.7967 55.8144 22.6685 51.7789 22.4764 51.5509C22.3226 51.3571 21.2592 51.1975 21.1054 51.3457Z" fill="#ABD1C6"/>
<path d="M37.7742 51.7675C37.6589 51.8359 37.5308 52.1323 37.4923 52.4173C37.4411 52.7023 37.377 56.088 37.3386 59.9411L37.2617 66.9633L37.5308 67.2711C37.8511 67.6359 38.3892 67.6815 38.812 67.3737L39.1067 67.1685L39.0811 59.7473C39.0683 55.6662 39.0042 52.1779 38.953 51.9955C38.8761 51.7333 38.7864 51.6763 38.4148 51.6535C38.1714 51.6307 37.8895 51.6877 37.7742 51.7675Z" fill="#ABD1C6"/>
<path d="M25.2566 52.3373C25.1541 52.4399 25.0901 54.7655 25.0644 59.9181C25.0132 66.7579 25.026 67.3621 25.231 67.5217C25.5257 67.7497 26.0766 67.7383 26.3585 67.4875C26.6916 67.1911 26.7685 65.2988 26.7685 58.2082C26.7685 52.7933 26.7557 52.6337 26.5122 52.4171C26.2176 52.1549 25.4616 52.1093 25.2566 52.3373Z" fill="#ABD1C6"/>
<path d="M33.5462 52.6339L33.2387 52.8505L33.2003 60.4199C33.1747 67.9209 33.1747 67.9893 33.4309 68.2401C33.7768 68.5593 34.4559 68.5821 34.7762 68.2629C34.994 68.0577 35.0068 67.6017 34.9812 60.4997C34.9684 56.2932 34.9043 52.8391 34.8403 52.6909C34.7378 52.4743 34.6225 52.4173 34.2765 52.4173C34.0459 52.4173 33.7128 52.5199 33.5462 52.6339Z" fill="#ABD1C6"/>
<path d="M29.2411 52.6683C29.1898 52.7481 29.1129 56.2022 29.0745 60.3402C28.9976 68.3884 28.9976 68.2972 29.6383 68.3998C30.0354 68.4682 30.6761 68.2402 30.7914 67.978C30.8298 67.8754 30.8682 64.5011 30.8682 60.477C30.8682 54.8228 30.8298 53.09 30.7017 52.8734C30.5736 52.6455 30.4326 52.5771 29.9458 52.5543C29.5614 52.5315 29.3179 52.5771 29.2411 52.6683Z" fill="#ABD1C6"/>
<path d="M50.1767 54.4919C50.1254 54.6401 50.0613 55.7459 50.0101 56.9314L49.9204 59.1088L50.2279 59.2912C50.6763 59.5761 51.0479 59.5306 51.4195 59.1316C51.7398 58.7896 51.7526 58.744 51.7526 57.1708L51.7398 55.5521L51.2657 54.9251C50.7404 54.2183 50.292 54.0473 50.1767 54.4919Z" fill="#ABD1C6"/>
<path d="M2.5275 63.8167C1.95094 64.0903 1.65625 64.5577 1.65625 65.1846C1.65625 65.823 1.9125 66.222 2.5275 66.5298C3.11687 66.8262 3.44999 66.849 3.94968 66.6096C4.84655 66.1992 5.28217 65.3556 4.92342 64.6944C4.41092 63.7255 3.43718 63.3721 2.5275 63.8167Z" fill="#004643"/>
<path d="M55.9167 73.0621C47.2555 73.0963 31.2784 73.1418 20.4391 73.1532L0.707952 73.1646L0.349204 73.4724C-0.124856 73.8714 -0.112044 74.2818 0.362016 74.6922L0.720764 75L37.3387 74.9772L73.9695 74.9544L74.2513 74.7036C74.6357 74.3616 74.7638 73.9056 74.5716 73.5522C74.3666 73.1304 73.7004 72.9367 72.6113 72.9595C72.0988 72.9709 64.5908 73.0165 55.9167 73.0621Z" fill="#004643"/>
</svg>
