<svg width="77" height="79" viewBox="0 0 77 79" fill="none" xmlns="http://www.w3.org/2000/svg">
<path d="M30.0616 5.30503C29.1123 12.5589 26.1589 13.9663 21.0959 9.63567C19.0918 7.90342 17.0877 6.49596 16.6658 6.49596C15.2945 6.49596 6.32877 15.2655 6.32877 16.673C6.32877 17.3226 7.7 19.5961 9.38767 21.5449C13.6068 26.85 12.2356 29.8814 5.16849 30.8558L0 31.6137V38.9757C0 46.8792 0.632877 47.5288 7.06712 47.637C8.54384 47.637 10.0205 48.7197 10.9699 50.5602C12.3411 53.2669 12.2356 53.8082 9.17671 57.5975L5.90685 61.8199L11.1808 67.2332L16.4548 72.5382L20.7795 69.2902C26.4753 64.9596 28.9014 65.934 30.1671 73.2961L31.1164 78.4928L38.1836 78.8176C45.989 79.1424 45.1452 80.0085 46.9384 70.9142C47.2548 69.5068 48.4151 67.7745 49.5753 67.1249C51.3685 66.1505 52.4233 66.4753 55.9041 69.2902L60.1233 72.7547L65.6082 67.3414L71.0931 62.0364L67.6123 57.5975C64.7644 53.9165 64.4479 52.7255 65.3973 50.885C66.0301 49.6941 67.8233 48.5032 69.4055 48.0701C70.9877 47.7453 73.3082 47.3122 74.6795 46.9874C76.789 46.5544 77 45.9048 77 39.4088C77 34.7534 76.5781 32.2633 75.7342 32.0467C74.9959 31.8302 72.4644 31.1806 70.2493 30.7475C64.6589 29.4483 63.6041 26.3086 67.0849 21.5449C68.4562 19.5961 69.6164 17.4308 69.6164 16.7812C69.6164 16.1316 67.5069 13.425 64.8699 10.8266L60.2288 6.17117L55.9041 9.20261C52.2123 11.801 51.263 12.0175 49.0479 11.0431C47.1493 10.0687 46.411 8.98608 46.411 6.60423C46.411 0.541328 45.7781 0 37.9726 0H30.8L30.0616 5.30503ZM45.1452 28.1492C47.1493 29.4483 49.3644 32.155 50.3137 34.3203C54.5329 44.7138 43.4575 55.8652 33.3315 51.5346C28.0575 49.261 25.1041 44.0643 25.6315 38.1096C26.6863 28.0409 36.7068 22.9524 45.1452 28.1492Z" fill="#004643"/>
</svg>
